<svg width="176" height="14" viewBox="0 0 176 14" fill="none" xmlns="http://www.w3.org/2000/svg">
<path d="M3.18359 6.95312V7.6709H0.196289V6.95312H3.18359ZM0.859375 3.60352V11H0.09375V3.60352H0.859375ZM2.56152 7.4043V7.18555C2.56152 6.65234 2.6276 6.16016 2.75977 5.70898C2.89193 5.25326 3.08105 4.85905 3.32715 4.52637C3.57324 4.18913 3.86491 3.92936 4.20215 3.74707C4.54395 3.56022 4.92448 3.4668 5.34375 3.4668C5.76302 3.4668 6.14583 3.56022 6.49219 3.74707C6.83854 3.92936 7.13249 4.18913 7.37402 4.52637C7.62012 4.85905 7.80697 5.25326 7.93457 5.70898C8.06673 6.16016 8.13281 6.65234 8.13281 7.18555V7.4043C8.13281 7.94661 8.06673 8.44564 7.93457 8.90137C7.80697 9.35254 7.62012 9.74674 7.37402 10.084C7.13249 10.4167 6.84082 10.6764 6.49902 10.8633C6.15723 11.0456 5.77441 11.1367 5.35059 11.1367C4.93132 11.1367 4.5485 11.0456 4.20215 10.8633C3.86035 10.6764 3.56641 10.4167 3.32031 10.084C3.07878 9.74674 2.89193 9.35254 2.75977 8.90137C2.6276 8.44564 2.56152 7.94661 2.56152 7.4043ZM3.32715 7.19238V7.41797C3.32715 7.81901 3.37044 8.20182 3.45703 8.56641C3.54362 8.92643 3.67122 9.24544 3.83984 9.52344C4.01302 9.80143 4.22493 10.0202 4.47559 10.1797C4.73079 10.3392 5.02246 10.4189 5.35059 10.4189C5.67415 10.4189 5.96126 10.3415 6.21191 10.1865C6.46712 10.027 6.67904 9.80599 6.84766 9.52344C7.02083 9.24089 7.15072 8.9196 7.2373 8.55957C7.32845 8.19954 7.37402 7.81673 7.37402 7.41113V7.19238C7.37402 6.7959 7.32845 6.41764 7.2373 6.05762C7.15072 5.69303 7.02083 5.37174 6.84766 5.09375C6.67904 4.8112 6.46712 4.58789 6.21191 4.42383C5.96126 4.25977 5.67188 4.17773 5.34375 4.17773C5.01562 4.17773 4.72624 4.25977 4.47559 4.42383C4.22493 4.58789 4.01302 4.8112 3.83984 5.09375C3.67122 5.37174 3.54362 5.69303 3.45703 6.05762C3.37044 6.41764 3.32715 6.7959 3.32715 7.19238ZM16.4245 7.5957H14.2712L14.2644 6.8916H16.0827C16.4473 6.8916 16.7504 6.84375 16.9919 6.74805C17.238 6.65234 17.4226 6.50879 17.5456 6.31738C17.6732 6.12142 17.737 5.88216 17.737 5.59961C17.737 5.3763 17.7006 5.1849 17.6277 5.02539C17.5547 4.86133 17.4454 4.72689 17.2995 4.62207C17.1583 4.51725 16.9805 4.43978 16.7663 4.38965C16.5521 4.33496 16.306 4.30762 16.028 4.30762H14.4831V11H13.7175V3.60352H16.028C16.4109 3.60352 16.7527 3.64453 17.0534 3.72656C17.3588 3.80404 17.6185 3.9248 17.8327 4.08887C18.0469 4.24837 18.211 4.45117 18.3249 4.69727C18.4389 4.94336 18.4958 5.2373 18.4958 5.5791C18.4958 5.80241 18.4594 6.01432 18.3864 6.21484C18.3135 6.41081 18.2042 6.58854 18.0583 6.74805C17.917 6.90299 17.7439 7.0306 17.5388 7.13086C17.3337 7.22656 17.0967 7.28581 16.8279 7.30859L16.4245 7.5957ZM16.4177 11H14.0251L14.3396 10.2891H16.4245C16.7572 10.2891 17.0398 10.2367 17.2722 10.1318C17.5046 10.027 17.6801 9.87435 17.7986 9.67383C17.9216 9.46875 17.9831 9.2181 17.9831 8.92188C17.9831 8.65299 17.9216 8.42057 17.7986 8.22461C17.6801 8.02409 17.5046 7.86914 17.2722 7.75977C17.0398 7.65039 16.7572 7.5957 16.4245 7.5957H14.8318L14.8454 6.8916H16.8825L17.1902 7.1582C17.5092 7.18555 17.7826 7.28581 18.0105 7.45898C18.2429 7.6276 18.4229 7.8418 18.5505 8.10156C18.6781 8.36133 18.7419 8.6416 18.7419 8.94238C18.7419 9.28418 18.6872 9.58496 18.5779 9.84473C18.4685 10.0999 18.3112 10.3118 18.1062 10.4805C17.9057 10.6491 17.6618 10.779 17.3747 10.8701C17.0876 10.9567 16.7686 11 16.4177 11ZM26.7397 11.1436C26.3295 11.1436 25.9513 11.0775 25.6049 10.9453C25.2631 10.8086 24.9669 10.6035 24.7162 10.3301C24.4702 10.0521 24.2787 9.70345 24.142 9.28418C24.0053 8.86035 23.937 8.36133 23.937 7.78711V6.93262C23.937 6.32194 24.0099 5.79785 24.1557 5.36035C24.3015 4.91829 24.4975 4.55827 24.7436 4.28027C24.9942 3.99772 25.2791 3.79264 25.5981 3.66504C25.9171 3.53288 26.2543 3.4668 26.6098 3.4668C27.0154 3.4668 27.3709 3.53288 27.6762 3.66504C27.9861 3.7972 28.2459 3.99772 28.4555 4.2666C28.6651 4.53548 28.8224 4.875 28.9272 5.28516C29.032 5.69076 29.0844 6.17155 29.0844 6.72754V7.36328H24.395V6.65234H28.3256V6.46094C28.3165 5.97786 28.2482 5.56771 28.1205 5.23047C27.9975 4.88867 27.8107 4.62891 27.56 4.45117C27.3139 4.26888 26.9995 4.17773 26.6166 4.17773C26.3341 4.17773 26.0743 4.23014 25.8373 4.33496C25.6004 4.43522 25.3953 4.59473 25.2221 4.81348C25.0535 5.03223 24.9236 5.31706 24.8325 5.66797C24.7459 6.01888 24.7026 6.44043 24.7026 6.93262V7.78711C24.7026 8.23828 24.7504 8.63021 24.8461 8.96289C24.9464 9.29102 25.0877 9.56445 25.27 9.7832C25.4523 9.9974 25.671 10.1592 25.9262 10.2686C26.1814 10.3734 26.464 10.4258 26.7739 10.4258C27.1567 10.4258 27.4916 10.362 27.7787 10.2344C28.0659 10.1022 28.3211 9.90397 28.5444 9.63965L28.9477 10.1455C28.811 10.3232 28.6424 10.4896 28.4418 10.6445C28.2413 10.7949 28.0021 10.9157 27.7241 11.0068C27.4461 11.098 27.1179 11.1436 26.7397 11.1436ZM38.6955 3.60352V4.32129H35.5783V3.60352H38.6955ZM39.3312 3.60352V11H38.5656V3.60352H39.3312ZM35.38 3.60352H36.1457L36.0021 7.07617C35.9748 7.64128 35.936 8.13802 35.8859 8.56641C35.8358 8.99479 35.7629 9.36393 35.6671 9.67383C35.576 9.98372 35.4598 10.2367 35.3185 10.4326C35.1772 10.624 35.0086 10.7676 34.8127 10.8633C34.6213 10.9544 34.3979 11 34.1427 11H33.8693V10.248L34.0812 10.2412C34.2453 10.2275 34.3865 10.1865 34.505 10.1182C34.6281 10.0452 34.7329 9.92904 34.8195 9.76953C34.9106 9.60547 34.9858 9.39583 35.0451 9.14062C35.1043 8.88086 35.1499 8.56413 35.1818 8.19043C35.2137 7.81673 35.241 7.3724 35.2638 6.85742L35.38 3.60352ZM46.0165 9.65332L49.2704 3.60352H50.036V11H49.2704V4.9502L46.0165 11H45.2577V3.60352H46.0165V9.65332ZM56.6529 5.02539V13.8438H55.8941V3.60352H56.5982L56.6529 5.02539ZM60.9459 6.95996V7.65039C60.9459 8.2474 60.8935 8.76465 60.7887 9.20215C60.6839 9.63965 60.5289 10.002 60.3238 10.2891C60.1188 10.5762 59.8681 10.7904 59.5719 10.9316C59.2802 11.0729 58.9475 11.1436 58.5738 11.1436C58.2047 11.1436 57.8788 11.0798 57.5963 10.9521C57.3137 10.8245 57.0722 10.6445 56.8717 10.4121C56.6757 10.1751 56.5185 9.89941 56.4 9.58496C56.2815 9.26595 56.1995 8.91504 56.1539 8.53223V6.25586C56.204 5.83659 56.2906 5.45605 56.4137 5.11426C56.5367 4.77246 56.6962 4.47852 56.8922 4.23242C57.0882 3.98633 57.3229 3.7972 57.5963 3.66504C57.8743 3.53288 58.1933 3.4668 58.5533 3.4668C58.9361 3.4668 59.2757 3.53288 59.5719 3.66504C59.8681 3.79264 60.1188 3.99772 60.3238 4.28027C60.5289 4.55827 60.6839 4.92057 60.7887 5.36719C60.8935 5.80924 60.9459 6.34017 60.9459 6.95996ZM60.1871 7.65039V6.95996C60.1871 6.48145 60.1507 6.07129 60.0777 5.72949C60.0048 5.38314 59.8932 5.09603 59.7428 4.86816C59.5969 4.6403 59.4078 4.47168 59.1754 4.3623C58.9475 4.24837 58.6786 4.19141 58.3688 4.19141C58.0543 4.19141 57.7831 4.25065 57.5553 4.36914C57.332 4.48307 57.1451 4.63574 56.9947 4.82715C56.8489 5.01855 56.7304 5.22819 56.6393 5.45605C56.5527 5.67936 56.4889 5.90039 56.4479 6.11914V8.70996C56.5253 9.01074 56.6415 9.29329 56.7965 9.55762C56.9514 9.82194 57.1588 10.0339 57.4186 10.1934C57.6783 10.3483 57.9996 10.4258 58.3824 10.4258C58.6923 10.4258 58.9589 10.3711 59.1822 10.2617C59.4101 10.1478 59.5969 9.97689 59.7428 9.74902C59.8932 9.5166 60.0048 9.22721 60.0777 8.88086C60.1507 8.53451 60.1871 8.12435 60.1871 7.65039ZM70.721 6.89844V7.61621H67.1185V6.89844H70.721ZM67.3099 3.60352V11H66.5443V3.60352H67.3099ZM71.3157 3.60352V11H70.557V3.60352H71.3157ZM77.7754 6.27637H79.7647C80.2569 6.27637 80.6716 6.37891 81.0088 6.58398C81.3506 6.78906 81.6081 7.06934 81.7813 7.4248C81.959 7.77572 82.0479 8.17676 82.0479 8.62793C82.0479 8.96061 81.9978 9.27279 81.8975 9.56445C81.7972 9.85156 81.6514 10.1022 81.46 10.3164C81.2686 10.5306 81.0293 10.6992 80.7422 10.8223C80.4597 10.9408 80.1315 11 79.7579 11H77.2627V3.60352H78.0284V10.2822H79.7715C80.1361 10.2822 80.4278 10.2048 80.6465 10.0498C80.8698 9.89486 81.0316 9.69206 81.1319 9.44141C81.2321 9.19076 81.2823 8.92643 81.2823 8.64844C81.2823 8.375 81.2321 8.11296 81.1319 7.8623C81.0316 7.6071 80.8698 7.39974 80.6465 7.24023C80.4278 7.07617 80.1338 6.99414 79.7647 6.99414H77.7754V6.27637ZM84.1739 3.60352V11H83.4082V3.60352H84.1739ZM90.9412 9.65332L94.1951 3.60352H94.9607V11H94.1951V4.9502L90.9412 11H90.1824V3.60352H90.9412V9.65332ZM93.8259 0.9375H94.53C94.53 1.28385 94.4503 1.59147 94.2908 1.86035C94.1313 2.12467 93.9034 2.33203 93.6072 2.48242C93.3155 2.63281 92.9646 2.70801 92.5545 2.70801C91.9392 2.70801 91.4539 2.54395 91.0984 2.21582C90.7475 1.88314 90.572 1.45703 90.572 0.9375H91.2761C91.2761 1.25195 91.3718 1.52539 91.5632 1.75781C91.7546 1.98568 92.0828 2.09961 92.5476 2.09961C93.0079 2.09961 93.336 1.98568 93.532 1.75781C93.728 1.52539 93.8259 1.25195 93.8259 0.9375ZM111.23 9.86523L113.629 3.60352H114.381L111.496 11H110.956L108.085 3.60352H108.83L111.23 9.86523ZM108.605 3.60352V11H107.839V3.60352H108.605ZM113.807 11V3.60352H114.572V11H113.807ZM124.204 9.67383V5.64746C124.204 5.30111 124.145 5.02083 124.026 4.80664C123.908 4.58789 123.735 4.42839 123.507 4.32812C123.279 4.22786 122.999 4.17773 122.666 4.17773C122.351 4.17773 122.071 4.24154 121.825 4.36914C121.584 4.49219 121.394 4.66536 121.258 4.88867C121.126 5.10742 121.059 5.36035 121.059 5.64746L120.301 5.64062C120.301 5.35807 120.358 5.08691 120.472 4.82715C120.586 4.56283 120.747 4.3304 120.957 4.12988C121.167 3.9248 121.417 3.76302 121.709 3.64453C122.005 3.52604 122.333 3.4668 122.693 3.4668C123.135 3.4668 123.527 3.53743 123.869 3.67871C124.211 3.81999 124.477 4.05241 124.669 4.37598C124.865 4.69954 124.963 5.12793 124.963 5.66113V9.44141C124.963 9.70117 124.979 9.96777 125.011 10.2412C125.047 10.5146 125.095 10.738 125.154 10.9111V11H124.348C124.297 10.8405 124.261 10.6377 124.238 10.3916C124.215 10.141 124.204 9.90169 124.204 9.67383ZM124.361 6.67969L124.382 7.3291H123.069C122.714 7.3291 122.402 7.36784 122.133 7.44531C121.864 7.52279 121.638 7.63444 121.456 7.78027C121.278 7.92611 121.144 8.09928 121.053 8.2998C120.962 8.50033 120.916 8.72819 120.916 8.9834C120.916 9.31152 120.968 9.5804 121.073 9.79004C121.178 9.99512 121.331 10.1478 121.531 10.248C121.736 10.3438 121.98 10.3916 122.263 10.3916C122.636 10.3916 122.964 10.3187 123.247 10.1729C123.534 10.0225 123.769 9.82422 123.951 9.57812C124.133 9.32747 124.252 9.06315 124.307 8.78516L124.512 9.25C124.466 9.45964 124.382 9.67383 124.259 9.89258C124.136 10.1113 123.976 10.3164 123.78 10.5078C123.584 10.6947 123.352 10.8473 123.083 10.9658C122.814 11.0843 122.511 11.1436 122.174 11.1436C121.768 11.1436 121.413 11.0661 121.107 10.9111C120.807 10.7562 120.572 10.5215 120.403 10.207C120.239 9.89258 120.157 9.50521 120.157 9.04492C120.157 8.70312 120.214 8.38867 120.328 8.10156C120.447 7.81445 120.622 7.56608 120.854 7.35645C121.087 7.14225 121.379 6.97591 121.729 6.85742C122.08 6.73893 122.488 6.67969 122.953 6.67969H124.361ZM134.724 3.60352V4.32129H131.641V11H130.876V3.60352H134.724ZM143.604 9.67383V5.64746C143.604 5.30111 143.545 5.02083 143.426 4.80664C143.308 4.58789 143.134 4.42839 142.907 4.32812C142.679 4.22786 142.398 4.17773 142.066 4.17773C141.751 4.17773 141.471 4.24154 141.225 4.36914C140.983 4.49219 140.794 4.66536 140.658 4.88867C140.525 5.10742 140.459 5.36035 140.459 5.64746L139.701 5.64062C139.701 5.35807 139.758 5.08691 139.871 4.82715C139.985 4.56283 140.147 4.3304 140.357 4.12988C140.566 3.9248 140.817 3.76302 141.109 3.64453C141.405 3.52604 141.733 3.4668 142.093 3.4668C142.535 3.4668 142.927 3.53743 143.269 3.67871C143.611 3.81999 143.877 4.05241 144.069 4.37598C144.265 4.69954 144.363 5.12793 144.363 5.66113V9.44141C144.363 9.70117 144.379 9.96777 144.411 10.2412C144.447 10.5146 144.495 10.738 144.554 10.9111V11H143.747C143.697 10.8405 143.661 10.6377 143.638 10.3916C143.615 10.141 143.604 9.90169 143.604 9.67383ZM143.761 6.67969L143.782 7.3291H142.469C142.114 7.3291 141.801 7.36784 141.533 7.44531C141.264 7.52279 141.038 7.63444 140.856 7.78027C140.678 7.92611 140.544 8.09928 140.452 8.2998C140.361 8.50033 140.316 8.72819 140.316 8.9834C140.316 9.31152 140.368 9.5804 140.473 9.79004C140.578 9.99512 140.73 10.1478 140.931 10.248C141.136 10.3438 141.38 10.3916 141.662 10.3916C142.036 10.3916 142.364 10.3187 142.647 10.1729C142.934 10.0225 143.169 9.82422 143.351 9.57812C143.533 9.32747 143.652 9.06315 143.706 8.78516L143.911 9.25C143.866 9.45964 143.782 9.67383 143.659 9.89258C143.536 10.1113 143.376 10.3164 143.18 10.5078C142.984 10.6947 142.752 10.8473 142.483 10.9658C142.214 11.0843 141.911 11.1436 141.574 11.1436C141.168 11.1436 140.813 11.0661 140.507 10.9111C140.206 10.7562 139.972 10.5215 139.803 10.207C139.639 9.89258 139.557 9.50521 139.557 9.04492C139.557 8.70312 139.614 8.38867 139.728 8.10156C139.846 7.81445 140.022 7.56608 140.254 7.35645C140.487 7.14225 140.778 6.97591 141.129 6.85742C141.48 6.73893 141.888 6.67969 142.353 6.67969H143.761ZM152.408 7.41797H151.383V6.85059H152.347C152.711 6.85059 153.001 6.79818 153.215 6.69336C153.429 6.58854 153.584 6.43815 153.68 6.24219C153.775 6.04622 153.823 5.81836 153.823 5.55859C153.823 5.30794 153.771 5.0778 153.666 4.86816C153.566 4.65853 153.406 4.48991 153.188 4.3623C152.969 4.2347 152.677 4.1709 152.313 4.1709C152.03 4.1709 151.773 4.23242 151.54 4.35547C151.308 4.47852 151.119 4.64714 150.973 4.86133C150.831 5.07552 150.761 5.32161 150.761 5.59961H150.002C150.002 5.16211 150.109 4.78385 150.323 4.46484C150.538 4.14583 150.82 3.89974 151.171 3.72656C151.522 3.55339 151.902 3.4668 152.313 3.4668C152.668 3.4668 152.985 3.51237 153.263 3.60352C153.545 3.69466 153.785 3.83138 153.981 4.01367C154.177 4.19141 154.327 4.41016 154.432 4.66992C154.537 4.92969 154.589 5.23047 154.589 5.57227C154.589 5.82292 154.541 6.0599 154.445 6.2832C154.35 6.50651 154.208 6.70475 154.022 6.87793C153.835 7.04655 153.605 7.17871 153.331 7.27441C153.062 7.37012 152.755 7.41797 152.408 7.41797ZM151.383 7.02832H152.408C152.791 7.02832 153.124 7.07161 153.406 7.1582C153.693 7.24023 153.933 7.36328 154.124 7.52734C154.316 7.69141 154.459 7.89421 154.555 8.13574C154.65 8.37728 154.698 8.65299 154.698 8.96289C154.698 9.30469 154.641 9.61003 154.527 9.87891C154.413 10.1478 154.249 10.3734 154.035 10.5557C153.826 10.738 153.575 10.8792 153.283 10.9795C152.992 11.0798 152.67 11.1299 152.319 11.1299C151.932 11.1299 151.552 11.0501 151.178 10.8906C150.809 10.7311 150.503 10.485 150.262 10.1523C150.02 9.8151 149.899 9.38672 149.899 8.86719H150.658C150.658 9.1543 150.729 9.41634 150.87 9.65332C151.016 9.8903 151.212 10.0794 151.458 10.2207C151.709 10.362 151.994 10.4326 152.313 10.4326C152.673 10.4326 152.971 10.3711 153.208 10.248C153.45 10.1204 153.63 9.94727 153.748 9.72852C153.871 9.50977 153.933 9.25911 153.933 8.97656C153.933 8.64844 153.873 8.38411 153.755 8.18359C153.641 7.97852 153.466 7.82812 153.229 7.73242C152.996 7.63672 152.702 7.58887 152.347 7.58887H151.383V7.02832ZM161.055 9.65332L164.309 3.60352H165.075V11H164.309V4.9502L161.055 11H160.297V3.60352H161.055V9.65332ZM175.171 6.89844V7.61621H171.569V6.89844H175.171ZM171.76 3.60352V11H170.995V3.60352H171.76ZM175.766 3.60352V11H175.007V3.60352H175.766Z" fill="#919191"/>
</svg>
